<svg data-v-0dd9719b="" version="1.0" xmlns="http://www.w3.org/2000/svg" xmlns:xlink="http://www.w3.org/1999/xlink" width="100%" height="100%" viewBox="0 0 340.000000 250.000000" preserveAspectRatio="xMidYMid meet" color-interpolation-filters="sRGB" style="margin: auto;"> <rect data-v-0dd9719b="" x="0" y="0" width="100%" height="100%" fill="transparent" fill-opacity="1" class="background"></rect> <rect data-v-0dd9719b="" x="0" y="0" width="100%" height="100%" fill="url(#watermark)" fill-opacity="1" class="watermarklayer"></rect> <g data-v-0dd9719b="" class="iconmbgsvg" transform="translate(89.44801330566406,72.10010147094727)"><g fill="#3FB4FE" hollow-target="text"><g transform="translate(26.801986694335938,0)" mask="url(#401064df-0a5d-43a8-91f4-a4c5b823c122)"><g><rect fill="#3FB4FE" fill-opacity="0" stroke-width="2" x="0" y="0" width="107.50000000000006" height="105.79979725806298" class="image-rect"></rect> <svg x="0" y="0" width="107.50000000000006" height="105.79979725806298" filtersec="colorsb8022335144" class="image-svg-svg primary" style="overflow: visible;"><svg xmlns="http://www.w3.org/2000/svg" viewBox="0 0 499.3500061035156 491.45001220703125"><title>资源 20</title><rect x="32.25" y="24.35" width="467.1" height="467.1" rx="186.84" fill="#35495E"></rect><rect width="467.1" height="467.1" rx="186.84" fill="#3FB4FE"></rect><rect x="13.57" y="10.5" width="467.1" height="467.1" rx="186.84" fill="#35495E"></rect></svg></svg> <!----></g></g> <g transform="translate(0,20.048601150512695)"><g data-gra="path-name" fill-rule="" class="tp-name"><g transform="scale(1)"><g><path d="M34.97 1.09L34.97 1.09Q34.31 1.39 32.89 1.42 31.46 1.46 30.15 1.06 28.83 0.66 28.54-0.29L28.54-0.29Q28.18-2.04 28.69-7.3 29.2-12.56 30.22-19.34 31.24-26.13 32.34-32.48 33.43-38.84 34.09-42.78L34.09-42.78Q32.78-39.27 30.26-32.01 27.74-24.75 25.55-18.18 23.36-11.61 23.07-10.07L23.07-10.07Q22.99-9.85 21.86-9.82 20.73-9.78 19.24-10.07 17.74-10.37 16.61-10.95 15.48-11.53 15.48-12.48L15.48-12.48Q15.4-17.37 15.69-22.12 15.99-26.86 16.43-31.39L16.43-31.39Q16.64-34.6 16.9-37.7 17.15-40.81 17.23-43.87L17.23-43.87Q15.55-38.62 13.65-30.66 11.75-22.7 10.07-14.93 8.39-7.15 7.45-2.55L7.45-2.55Q7.37-2.26 7.3-1.97L7.3-1.97Q7.01-1.02 5.77-0.69 4.53-0.36 3.07-0.66 1.61-0.95 0.51-1.82-0.58-2.7-0.51-4.23L-0.51-4.23Q-0.29-9.49 0.8-17.23 1.9-24.97 3.28-32.85 4.67-40.73 5.84-46.54 7.01-52.34 7.37-53.65L7.37-53.65Q7.88-54.09 9.05-54.38 10.22-54.68 11.53-54.49 12.85-54.31 13.72-53.33 14.6-52.34 14.38-50.22L14.38-50.22Q13.21-43.87 12.37-38.07 11.53-32.27 10.88-27.59L10.88-27.59Q10.22-23.14 9.78-20.22L9.78-20.22Q10.58-23.43 11.46-27.45L11.46-27.45Q12.19-30.88 12.99-34.35 13.8-37.81 14.71-40.81 15.62-43.8 16.53-45.7 17.45-47.6 18.47-47.96L18.47-47.96Q19.05-48.18 20.26-48.14 21.46-48.11 22.78-47.63 24.09-47.16 24.97-46.06L24.97-46.06Q25.48-45.48 25.51-42.7 25.55-39.93 25.29-36.03 25.04-32.12 24.75-28.03L24.75-28.03Q24.38-23.58 24.16-20.22L24.16-20.22Q26.13-25.18 27.67-29.38 29.2-33.58 30.37-37.01L30.37-37.01Q31.68-40.95 32.74-43.76 33.8-46.57 34.78-48.18 35.77-49.79 36.79-50.15L36.79-50.15Q36.79-50.15 37.45-50.04 38.11-49.93 39.02-49.64 39.93-49.35 40.7-48.8 41.46-48.25 41.68-47.38L41.68-47.38Q41.83-45.77 40.99-38.95 40.15-32.12 38.91-23.47 37.67-14.82 36.54-7.81 35.41-0.8 34.97 1.09ZM58.25-16.94L58.25-16.94Q58.33-17.96 58.18-19.71 58.03-21.46 57.6-22.89 57.16-24.31 56.43-24.45L56.43-24.45Q55.77-24.53 55.74-23.65 55.7-22.78 56.03-21.5 56.36-20.22 56.98-18.98 57.6-17.74 58.25-16.94ZM59.57-16.06L59.57-16.06Q61.54-15.04 62.96-15.26 64.39-15.48 65.55-17.08L65.55-17.08Q65.7-17.23 65.85-17.34 65.99-17.45 66.17-17.45 66.36-17.45 66.43-17.37L66.43-17.37Q66.58-17.37 66.69-17.26 66.79-17.15 66.83-16.97 66.87-16.79 66.79-16.5L66.79-16.5Q65.92-15.18 64.57-14.53 63.22-13.87 61.83-13.91 60.44-13.94 59.42-14.67L59.42-14.67Q58.84-8.76 57.49-5.44 56.14-2.12 54.09-0.95 52.05 0.22 49.42-0.29L49.42-0.29Q48.25-0.51 47.45-1.06 46.65-1.61 45.92-2.77L45.92-2.77Q44.97-4.45 44.79-7.04 44.6-9.64 45.04-12.56 45.48-15.48 46.28-18.03 47.08-20.59 48.14-22.12 49.2-23.65 50.3-23.58L50.3-23.58Q51.25-23.36 52.23-22.7 53.22-22.05 53.91-21.39 54.6-20.73 54.6-20.59L54.6-20.59Q53.65-18.83 52.71-16.13 51.76-13.43 51.1-10.55 50.44-7.66 50.3-5.4 50.15-3.14 50.81-2.34L50.81-2.34Q51.17-1.97 51.72-1.82 52.27-1.68 52.96-1.93 53.65-2.19 54.53-3.14L54.53-3.14Q55.26-4.09 56.06-5.84 56.87-7.59 57.45-10 58.03-12.41 58.18-15.4L58.18-15.4Q56.72-16.57 55.84-18.32 54.97-20.07 54.71-21.79 54.46-23.51 54.75-24.67 55.04-25.84 55.84-25.84L55.84-25.84Q55.84-25.84 56.14-25.81 56.43-25.77 56.87-25.55 57.3-25.33 57.78-24.82 58.25-24.31 58.69-23.36L58.69-23.36Q59.13-22.48 59.39-20.26 59.64-18.03 59.57-16.06ZM79.72-43.87L79.72-43.87Q81.32-48.54 81.65-50.92 81.98-53.29 81.36-53.62 80.74-53.95 79.53-52.49 78.33-51.03 76.98-48.14 75.63-45.26 74.42-41.21 73.22-37.16 72.63-32.19L72.63-32.19Q73.88-33.43 75.15-35.11 76.43-36.79 77.6-38.98 78.77-41.17 79.72-43.87ZM78.11-5.77L78.11-5.77Q76.72-4.45 75.34-3.21L75.34-3.21Q73.88-1.97 72.71-0.88 71.54 0.22 71.03 1.02 70.52 1.82 70.96 2.19L70.96 2.19Q71.54 2.48 72.6 1.93 73.66 1.39 75.04-0.44 76.43-2.26 78.11-5.77ZM90.96-17.08L90.96-17.08Q91.54-17.67 92.05-17.3L92.05-17.3Q92.27-17.15 92.34-16.9 92.42-16.64 92.27-16.43L92.27-16.43Q91.25-15.26 89.94-14.13 88.62-12.99 86.94-11.61L86.94-11.61Q86.07-10.88 85.04-10.07L85.04-10.07Q83.66-5.69 81.43-2.45 79.2 0.8 76.83 2.55 74.46 4.31 72.78 4.09L72.78 4.09Q72.78 4.09 72.45 4.09 72.12 4.09 71.69 4.01 71.25 3.94 70.77 3.76 70.3 3.58 70.01 3.28L70.01 3.28Q69.13 2.41 69.42 1.31 69.71 0.22 70.85-1.09 71.98-2.41 73.69-3.87 75.41-5.33 77.45-7.01L77.45-7.01Q78.04-7.52 78.69-8.03L78.69-8.03Q78.99-8.76 79.39-10.8 79.79-12.85 80.08-15.18 80.37-17.52 80.3-19.2 80.23-20.88 79.5-21.02L79.5-21.02Q78.04-20.37 76.28-18.21 74.53-16.06 72.93-13.18 71.32-10.29 70.23-7.37 69.13-4.45 68.91-2.34L68.91-2.34Q68.77-1.24 68.18-0.77 67.6-0.29 66.76-0.18 65.92-0.07 65.12-0.15L65.12-0.15 64.53-0.15Q63.87-0.15 63.84-2.55 63.8-4.96 64.13-8.72 64.46-12.48 64.97-16.72 65.48-20.95 65.99-24.71 66.5-28.47 66.87-30.95L66.87-30.95Q66.94-31.54 67.01-31.97L67.01-31.97Q67.96-38.69 69.82-43.47 71.69-48.25 73.91-51.17 76.14-54.09 78.18-55.08 80.23-56.06 81.54-55.15 82.85-54.24 82.89-51.36 82.93-48.47 81.18-43.73L81.18-43.73Q79.86-40.3 78.33-37.7 76.8-35.11 75.26-33.29 73.73-31.46 72.42-30.37L72.42-30.37Q71.54-25.18 71.1-22.05 70.66-18.91 70.37-16.28L70.37-16.28Q70.08-13.94 69.64-10.88L69.64-10.88Q71.25-15.4 73.84-18.43 76.43-21.46 79.06-22.34L79.06-22.34Q79.93-22.56 80.85-22.41 81.76-22.26 82.56-21.97L82.56-21.97 82.64-21.97Q83.95-21.61 84.57-20.4 85.19-19.2 85.37-17.67 85.56-16.13 85.48-14.71 85.41-13.29 85.26-12.41L85.26-12.41 85.26-12.04Q87.02-13.29 88.69-14.89 90.37-16.5 90.96-17.08ZM120.6-51.17L120.6-51.17Q116.87-43.65 110.74-30 104.61-16.35 97.31 0.15L97.31 0.15 97.09 0.15Q96.65 0.07 95.63-0.11 94.61-0.29 93.44-0.69 92.27-1.09 91.43-1.82 90.59-2.55 90.45-3.65L90.45-3.65Q90.37-4.67 90.63-7.04 90.88-9.42 91.32-12.85L91.32-12.85Q91.98-17.74 92.67-24.27 93.37-30.81 93.8-38.36 94.24-45.92 93.95-54.02L93.95-54.02Q95.12-54.97 96.8-54.86 98.48-54.75 100.01-53.76 101.54-52.78 102.13-51.03L102.13-51.03Q102.56-49.57 102.38-43 102.2-36.43 101.4-27.59 100.59-18.76 99.21-10.58L99.21-10.58Q101.54-14.82 104.28-20.77 107.02-26.72 109.79-33L109.79-33Q112.78-39.78 115.3-45.15 117.82-50.52 119.28-52.63L119.28-52.63Q119.57-53 119.94-53.07 120.3-53.14 120.6-52.92L120.6-52.92 120.67-52.85Q120.81-52.78 120.92-52.6 121.03-52.41 121-52.09 120.96-51.76 120.6-51.17ZM141.47-17.3L141.47-17.3Q141.62-17.81 141.88-17.92 142.13-18.03 142.42-17.96L142.42-17.96Q142.79-17.88 142.9-17.59 143.01-17.3 142.86-16.94L142.86-16.94Q141.33-11.83 139.25-8.1 137.17-4.38 134.83-2.08 132.49 0.22 130.23 0.95 127.97 1.68 126 0.66L126 0.66Q125.71 0.51 125.52 0.36 125.34 0.22 125.34 0.22L125.34 0.22Q124.9-0.51 125.01-2.01 125.12-3.5 125.6-5.37 126.07-7.23 126.58-9.05L126.58-9.05Q127.17-11.17 127.53-12.7L127.53-12.7Q126.73-11.61 125.71-9.93L125.71-9.93Q124.68-8.32 123.52-6.61 122.35-4.89 121.11-3.39 119.87-1.9 118.62-1.06 117.38-0.22 116.22-0.36L116.22-0.36Q116.22-0.36 115.96-0.44 115.7-0.51 115.3-0.66 114.9-0.8 114.54-1.06 114.17-1.31 113.95-1.68L113.95-1.68Q113.15-3.14 113.3-5.84 113.44-8.54 114.06-11.57 114.68-14.6 115.38-17.15 116.07-19.71 116.43-20.95L116.43-20.95Q116.65-21.54 116.65-21.61L116.65-21.61Q116.87-21.75 117.71-22.05 118.55-22.34 119.57-22.48 120.6-22.63 121.18-22.26L121.18-22.26Q121.47-21.97 121.51-21.61 121.54-21.24 121.4-20.73L121.4-20.73Q119.35-12.77 118.44-8.43 117.53-4.09 118.11-3.47 118.7-2.85 121.14-5.95 123.59-9.05 128.33-16.06L128.33-16.06Q129.5-16.13 130.38-15.99 131.25-15.84 131.8-15.62 132.35-15.4 132.68-15.18 133.01-14.96 133.12-14.78 133.22-14.6 133.22-14.6L133.22-14.6Q132.93-13.14 132.46-11.5 131.98-9.85 131.55-8.1L131.55-8.1Q130.89-6.06 130.45-4.34 130.01-2.63 129.87-1.53 129.72-0.44 130.16-0.44L130.16-0.44Q131.91-1.17 133.95-3.18 136-5.18 137.93-8.65 139.87-12.12 141.47-17.3ZM151.62-17.37L151.62-17.37Q151.69-17.52 151.88-18.21 152.06-18.91 152.02-19.64 151.99-20.37 151.47-20.8L151.47-20.8Q151.04-21.1 150.6-21.02 150.16-20.95 149.83-20.73 149.5-20.51 149.28-20.29L149.28-20.29Q148.77-19.78 148.04-18.61 147.31-17.45 146.69-16.24 146.07-15.04 145.85-14.31L145.85-14.31Q147.53-13.72 148.66-14.13 149.8-14.53 150.49-15.44 151.18-16.35 151.62-17.37ZM159.29-16.57L159.29-16.57Q159.43-16.94 159.65-17.12 159.87-17.3 160.16-17.23L160.16-17.23Q160.75-17.15 160.53-16.28L160.53-16.28Q159.14-12.26 157.42-8.98 155.71-5.69 153.63-3.43 151.55-1.17 149.03-0.26 146.51 0.66 143.59 0L143.59 0Q141.25-0.58 140.12-2.74 138.99-4.89 139.06-8.21 139.14-11.53 140.45-15.55L140.45-15.55Q141.33-18.1 142.79-20 144.25-21.9 146.04-22.74 147.82-23.58 149.72-23.07L149.72-23.07Q151.04-22.7 152.02-21.9 153.01-21.1 153.26-19.78 153.52-18.47 152.72-16.64L152.72-16.64Q152.2-15.48 151.26-14.42 150.31-13.36 148.81-12.85 147.31-12.34 145.27-12.92L145.27-12.92Q144.47-10.07 144.21-8.18 143.96-6.28 144.03-5.07 144.1-3.87 144.47-3.18 144.83-2.48 145.2-2.12L145.2-2.12Q146.66-1.02 148.37-1.53 150.09-2.04 151.8-3.69 153.52-5.33 155.05-7.59 156.58-9.85 157.72-12.23 158.85-14.6 159.29-16.57Z" transform="translate(0.5142240524291992, 55.58815002441406)"></path></g> <!----> <!----> <!----> <!----> <!----> <!----> <!----></g></g> <!----></g></g></g><defs v-gra="od"></defs><mask id="401064df-0a5d-43a8-91f4-a4c5b823c122"><g fill="white"><g><rect fill-opacity="1" stroke-width="2" x="0" y="0" width="107.50000000000006" height="105.79979725806298" class="image-rect"></rect> <svg x="0" y="0" width="107.50000000000006" height="105.79979725806298" filtersec="colorsb8022335144" class="image-svg-svg primary" style="overflow: visible;"><svg xmlns="http://www.w3.org/2000/svg" viewBox="0 0 499.3500061035156 491.45001220703125"><title>资源 20</title><rect x="32.25" y="24.35" width="467.1" height="467.1" rx="186.84"></rect><rect width="467.1" height="467.1" rx="186.84"></rect><rect x="13.57" y="10.5" width="467.1" height="467.1" rx="186.84"></rect></svg></svg> </g></g> <g transform="translate(-26.801986694335938,20.048601150512695)" fill="black" stroke="black" stroke-width="6" stroke-linejoin="round"><g data-gra="path-name" fill-rule="" class="tp-name"><g transform="scale(1)"><g><path d="M34.97 1.09L34.97 1.09Q34.31 1.39 32.89 1.42 31.46 1.46 30.15 1.06 28.83 0.66 28.54-0.29L28.54-0.29Q28.18-2.04 28.69-7.3 29.2-12.56 30.22-19.34 31.24-26.13 32.34-32.48 33.43-38.84 34.09-42.78L34.09-42.78Q32.78-39.27 30.26-32.01 27.74-24.75 25.55-18.18 23.36-11.61 23.07-10.07L23.07-10.07Q22.99-9.85 21.86-9.82 20.73-9.78 19.24-10.07 17.74-10.37 16.61-10.95 15.48-11.53 15.48-12.48L15.48-12.48Q15.4-17.37 15.69-22.12 15.99-26.86 16.43-31.39L16.43-31.39Q16.64-34.6 16.9-37.7 17.15-40.81 17.23-43.87L17.23-43.87Q15.55-38.62 13.65-30.66 11.75-22.7 10.07-14.93 8.39-7.15 7.45-2.55L7.45-2.55Q7.37-2.26 7.3-1.97L7.3-1.97Q7.01-1.02 5.77-0.69 4.53-0.36 3.07-0.66 1.61-0.95 0.51-1.82-0.58-2.7-0.51-4.23L-0.51-4.23Q-0.29-9.49 0.8-17.23 1.9-24.97 3.28-32.85 4.67-40.73 5.84-46.54 7.01-52.34 7.37-53.65L7.37-53.65Q7.88-54.09 9.05-54.38 10.22-54.68 11.53-54.49 12.85-54.31 13.72-53.33 14.6-52.34 14.38-50.22L14.38-50.22Q13.21-43.87 12.37-38.07 11.53-32.27 10.88-27.59L10.88-27.59Q10.22-23.14 9.78-20.22L9.78-20.22Q10.58-23.43 11.46-27.45L11.46-27.45Q12.19-30.88 12.99-34.35 13.8-37.81 14.71-40.81 15.62-43.8 16.53-45.7 17.45-47.6 18.47-47.96L18.47-47.96Q19.05-48.18 20.26-48.14 21.46-48.11 22.78-47.63 24.09-47.16 24.97-46.06L24.97-46.06Q25.48-45.48 25.51-42.7 25.55-39.93 25.29-36.03 25.04-32.12 24.75-28.03L24.75-28.03Q24.38-23.58 24.16-20.22L24.16-20.22Q26.13-25.18 27.67-29.38 29.2-33.58 30.37-37.01L30.37-37.01Q31.68-40.95 32.74-43.76 33.8-46.57 34.78-48.18 35.77-49.79 36.79-50.15L36.79-50.15Q36.79-50.15 37.45-50.04 38.11-49.93 39.02-49.64 39.93-49.35 40.7-48.8 41.46-48.25 41.68-47.38L41.68-47.38Q41.83-45.77 40.99-38.95 40.15-32.12 38.91-23.47 37.67-14.82 36.54-7.81 35.41-0.8 34.97 1.09ZM58.25-16.94L58.25-16.94Q58.33-17.96 58.18-19.71 58.03-21.46 57.6-22.89 57.16-24.31 56.43-24.45L56.43-24.45Q55.77-24.53 55.74-23.65 55.7-22.78 56.03-21.5 56.36-20.22 56.98-18.98 57.6-17.74 58.25-16.94ZM59.57-16.06L59.57-16.06Q61.54-15.04 62.96-15.26 64.39-15.48 65.55-17.08L65.55-17.08Q65.7-17.23 65.85-17.34 65.99-17.45 66.17-17.45 66.36-17.45 66.43-17.37L66.43-17.37Q66.58-17.37 66.69-17.26 66.79-17.15 66.83-16.97 66.87-16.79 66.79-16.5L66.79-16.5Q65.92-15.18 64.57-14.53 63.22-13.87 61.83-13.91 60.44-13.94 59.42-14.67L59.42-14.67Q58.84-8.76 57.49-5.44 56.14-2.12 54.09-0.95 52.05 0.22 49.42-0.29L49.42-0.29Q48.25-0.51 47.45-1.06 46.65-1.61 45.92-2.77L45.92-2.77Q44.97-4.45 44.79-7.04 44.6-9.64 45.04-12.56 45.48-15.48 46.28-18.03 47.08-20.59 48.14-22.12 49.2-23.65 50.3-23.58L50.3-23.58Q51.25-23.36 52.23-22.7 53.22-22.05 53.91-21.39 54.6-20.73 54.6-20.59L54.6-20.59Q53.65-18.83 52.71-16.13 51.76-13.43 51.1-10.55 50.44-7.66 50.3-5.4 50.15-3.14 50.81-2.34L50.81-2.34Q51.17-1.97 51.72-1.82 52.27-1.68 52.96-1.93 53.65-2.19 54.53-3.14L54.53-3.14Q55.26-4.09 56.06-5.84 56.87-7.59 57.45-10 58.03-12.41 58.18-15.4L58.18-15.4Q56.72-16.57 55.84-18.32 54.97-20.07 54.71-21.79 54.46-23.51 54.75-24.67 55.04-25.84 55.84-25.84L55.84-25.84Q55.84-25.84 56.14-25.81 56.43-25.77 56.87-25.55 57.3-25.33 57.78-24.82 58.25-24.31 58.69-23.36L58.69-23.36Q59.13-22.48 59.39-20.26 59.64-18.03 59.57-16.06ZM79.72-43.87L79.72-43.87Q81.32-48.54 81.65-50.92 81.98-53.29 81.36-53.62 80.74-53.95 79.53-52.49 78.33-51.03 76.98-48.14 75.63-45.26 74.42-41.21 73.22-37.16 72.63-32.19L72.63-32.19Q73.88-33.43 75.15-35.11 76.43-36.79 77.6-38.98 78.77-41.17 79.72-43.87ZM78.11-5.77L78.11-5.77Q76.72-4.45 75.34-3.21L75.34-3.21Q73.88-1.97 72.71-0.88 71.54 0.22 71.03 1.02 70.52 1.82 70.96 2.19L70.96 2.19Q71.54 2.48 72.6 1.93 73.66 1.39 75.04-0.44 76.43-2.26 78.11-5.77ZM90.96-17.08L90.96-17.08Q91.54-17.67 92.05-17.3L92.05-17.3Q92.27-17.15 92.34-16.9 92.42-16.64 92.27-16.43L92.27-16.43Q91.25-15.26 89.94-14.13 88.62-12.99 86.94-11.61L86.94-11.61Q86.07-10.88 85.04-10.07L85.04-10.07Q83.66-5.69 81.43-2.45 79.2 0.8 76.83 2.55 74.46 4.31 72.78 4.09L72.78 4.09Q72.78 4.09 72.45 4.09 72.12 4.09 71.69 4.01 71.25 3.94 70.77 3.76 70.3 3.58 70.01 3.28L70.01 3.28Q69.13 2.41 69.42 1.31 69.71 0.22 70.85-1.09 71.98-2.41 73.69-3.87 75.41-5.33 77.45-7.01L77.45-7.01Q78.04-7.52 78.69-8.03L78.69-8.03Q78.99-8.76 79.39-10.8 79.79-12.85 80.08-15.18 80.37-17.52 80.3-19.2 80.23-20.88 79.5-21.02L79.5-21.02Q78.04-20.37 76.28-18.21 74.53-16.06 72.93-13.18 71.32-10.29 70.23-7.37 69.13-4.45 68.91-2.34L68.91-2.34Q68.77-1.24 68.18-0.77 67.6-0.29 66.76-0.18 65.92-0.07 65.12-0.15L65.12-0.15 64.53-0.15Q63.87-0.15 63.84-2.55 63.8-4.96 64.13-8.72 64.46-12.48 64.97-16.72 65.48-20.95 65.99-24.71 66.5-28.47 66.87-30.95L66.87-30.95Q66.94-31.54 67.01-31.97L67.01-31.97Q67.96-38.69 69.82-43.47 71.69-48.25 73.91-51.17 76.14-54.09 78.18-55.08 80.23-56.06 81.54-55.15 82.85-54.24 82.89-51.36 82.93-48.47 81.18-43.73L81.18-43.73Q79.86-40.3 78.33-37.7 76.8-35.11 75.26-33.29 73.73-31.46 72.42-30.37L72.42-30.37Q71.54-25.18 71.1-22.05 70.66-18.91 70.37-16.28L70.37-16.28Q70.08-13.94 69.64-10.88L69.64-10.88Q71.25-15.4 73.84-18.43 76.43-21.46 79.06-22.34L79.06-22.34Q79.93-22.56 80.85-22.41 81.76-22.26 82.56-21.97L82.56-21.97 82.64-21.97Q83.95-21.61 84.57-20.4 85.19-19.2 85.37-17.67 85.56-16.13 85.48-14.71 85.41-13.29 85.26-12.41L85.26-12.41 85.26-12.04Q87.02-13.29 88.69-14.89 90.37-16.5 90.96-17.08ZM120.6-51.17L120.6-51.17Q116.87-43.65 110.74-30 104.61-16.35 97.31 0.15L97.31 0.15 97.09 0.15Q96.65 0.07 95.63-0.11 94.61-0.29 93.44-0.69 92.27-1.09 91.43-1.82 90.59-2.55 90.45-3.65L90.45-3.65Q90.37-4.67 90.63-7.04 90.88-9.42 91.32-12.85L91.32-12.85Q91.98-17.74 92.67-24.27 93.37-30.81 93.8-38.36 94.24-45.92 93.95-54.02L93.95-54.02Q95.12-54.97 96.8-54.86 98.48-54.75 100.01-53.76 101.54-52.78 102.13-51.03L102.13-51.03Q102.56-49.57 102.38-43 102.2-36.43 101.4-27.59 100.59-18.76 99.21-10.58L99.21-10.58Q101.54-14.82 104.28-20.77 107.02-26.72 109.79-33L109.79-33Q112.78-39.78 115.3-45.15 117.82-50.52 119.28-52.63L119.28-52.63Q119.57-53 119.94-53.07 120.3-53.14 120.6-52.92L120.6-52.92 120.67-52.85Q120.81-52.78 120.92-52.6 121.03-52.41 121-52.09 120.96-51.76 120.6-51.17ZM141.47-17.3L141.47-17.3Q141.62-17.81 141.88-17.92 142.13-18.03 142.42-17.96L142.42-17.96Q142.79-17.88 142.9-17.59 143.01-17.3 142.86-16.94L142.86-16.94Q141.33-11.83 139.25-8.1 137.17-4.38 134.83-2.08 132.49 0.22 130.23 0.95 127.97 1.68 126 0.66L126 0.66Q125.71 0.51 125.52 0.36 125.34 0.22 125.34 0.22L125.34 0.22Q124.9-0.51 125.01-2.01 125.12-3.5 125.6-5.37 126.07-7.23 126.58-9.05L126.58-9.05Q127.17-11.17 127.53-12.7L127.53-12.7Q126.73-11.61 125.71-9.93L125.71-9.93Q124.68-8.32 123.52-6.61 122.35-4.89 121.11-3.39 119.87-1.9 118.62-1.06 117.38-0.22 116.22-0.36L116.22-0.36Q116.22-0.36 115.96-0.44 115.7-0.51 115.3-0.66 114.9-0.8 114.54-1.06 114.17-1.31 113.95-1.68L113.95-1.68Q113.15-3.14 113.3-5.84 113.44-8.54 114.06-11.57 114.68-14.6 115.38-17.15 116.07-19.71 116.43-20.95L116.43-20.95Q116.65-21.54 116.65-21.61L116.65-21.61Q116.87-21.75 117.71-22.05 118.55-22.34 119.57-22.48 120.6-22.63 121.18-22.26L121.18-22.26Q121.47-21.97 121.51-21.61 121.54-21.24 121.4-20.73L121.4-20.73Q119.35-12.77 118.44-8.43 117.53-4.09 118.11-3.47 118.7-2.85 121.14-5.95 123.59-9.05 128.33-16.06L128.33-16.06Q129.5-16.13 130.38-15.99 131.25-15.84 131.8-15.62 132.35-15.4 132.68-15.18 133.01-14.96 133.12-14.78 133.22-14.6 133.22-14.6L133.22-14.6Q132.93-13.14 132.46-11.5 131.98-9.85 131.55-8.1L131.55-8.1Q130.89-6.06 130.45-4.34 130.01-2.63 129.87-1.53 129.72-0.44 130.16-0.44L130.16-0.44Q131.91-1.17 133.95-3.18 136-5.18 137.93-8.65 139.87-12.12 141.47-17.3ZM151.62-17.37L151.62-17.37Q151.69-17.52 151.88-18.21 152.06-18.91 152.02-19.64 151.99-20.37 151.47-20.8L151.47-20.8Q151.04-21.1 150.6-21.02 150.16-20.95 149.83-20.73 149.5-20.51 149.28-20.29L149.28-20.29Q148.77-19.78 148.04-18.61 147.31-17.45 146.69-16.24 146.07-15.04 145.85-14.31L145.85-14.31Q147.53-13.72 148.66-14.13 149.8-14.53 150.49-15.44 151.18-16.35 151.62-17.37ZM159.29-16.57L159.29-16.57Q159.43-16.94 159.65-17.12 159.87-17.3 160.16-17.23L160.16-17.23Q160.75-17.15 160.53-16.28L160.53-16.28Q159.14-12.26 157.42-8.98 155.71-5.69 153.63-3.43 151.55-1.17 149.03-0.26 146.51 0.66 143.59 0L143.59 0Q141.25-0.58 140.12-2.74 138.99-4.89 139.06-8.21 139.14-11.53 140.45-15.55L140.45-15.55Q141.33-18.1 142.79-20 144.25-21.9 146.04-22.74 147.82-23.58 149.72-23.07L149.72-23.07Q151.04-22.7 152.02-21.9 153.01-21.1 153.26-19.78 153.52-18.47 152.72-16.64L152.72-16.64Q152.2-15.48 151.26-14.42 150.31-13.36 148.81-12.85 147.31-12.34 145.27-12.92L145.27-12.92Q144.47-10.07 144.21-8.18 143.96-6.28 144.03-5.07 144.1-3.87 144.47-3.18 144.83-2.48 145.2-2.12L145.2-2.12Q146.66-1.02 148.37-1.53 150.09-2.04 151.8-3.69 153.52-5.33 155.05-7.59 156.58-9.85 157.72-12.23 158.85-14.6 159.29-16.57Z" transform="translate(0.5142240524291992, 55.58815002441406)"></path></g>       </g></g> </g></mask></svg>
